<svg xmlns="http://www.w3.org/2000/svg" xmlns:xlink="http://www.w3.org/1999/xlink" fill="none" version="1.1" width="36.00092315673828" height="36.000083923339844" viewBox="0 0 36.00092315673828 36.000083923339844"><path d="M28,5.000042C27.934046,3.4782982,27.526348,2.7339687,26.499374,2.1330204C23.893185,0.73696136,20.974497,0,18,0C8.0588741,0,0,8.0588741,0,18C0,20.486799,0.51511002,22.934591,1.4998264,25.193375C2.8212566,28.514505,6.8515854,26.570213,5.1258602,23.500593C4.3901691,21.778698,4,19.909748,4,18C4,10.268013,10.268013,4,18,4C19.892853,4,21.745625,4.383297,23.454859,5.1064148C23.922234,5.352417,24.012175,5.887188,24,6.500042L24,17.000042C24,18.10461,24.895432,19.000042,26,19.000042C27.10457,19.000042,28,18.10461,28,17.000042L28,5.000042ZM9.5015488,33.867065C8.474575,33.266113,8.0668774,32.521786,8.0009232,31.000042L8.0009232,19.000042C8.0009232,17.895473,8.8963528,17.000042,10.000923,17.000042C11.105492,17.000042,12.000923,17.895473,12.000923,19.000042L12.000923,29.500042C11.988749,30.112896,12.07869,30.647667,12.546064,30.893669C14.255298,31.616787,16.10807,32.000084,18.000923,32.000084C25.73291,32.000084,32.000923,25.732071,32.000923,18.000084C32.000923,16.090336,31.610754,14.221387,30.875063,12.499491C29.149338,9.4298706,33.179665,7.4855785,34.501099,10.806709C35.485813,13.065493,36.000923,15.513285,36.000923,18.000084C36.000923,27.94121,27.942049,36.000084,18.000923,36.000084C15.026426,36.000084,12.107739,35.263123,9.5015488,33.867065ZM16.00095,24.000042L16.00095,12.000042C16.00095,10.895472,16.896381,10.000042,18.00095,10.000042C19.105518,10.000042,20.00095,10.895472,20.00095,12.000042L20.00095,24.000042C20.00095,25.104612,19.105518,26.000042,18.00095,26.000042C16.896381,26.000042,16.00095,25.104612,16.00095,24.000042Z" fill-rule="evenodd" fill="#09090B" fill-opacity="1"/></svg>